<svg width="116" height="68" viewBox="0 0 116 68" fill="none" xmlns="http://www.w3.org/2000/svg">
<path d="M1.95799 0.176421L3.26332 17.1131L5.54764 0.176421H7.34247L9.6268 17.1131L10.9321 0.176421H12.727L10.9321 19.9358H9.6268C9.30046 19.9358 8.97413 19.7594 8.6478 19.583C8.32147 19.4066 8.1583 19.0537 8.1583 18.5244L6.36348 4.41058L4.40548 19.7594H3.10015C2.77382 19.7594 2.44749 19.583 2.12116 19.4066C1.79483 19.2301 1.79483 18.8773 1.63166 18.348L0 0H1.95799V0.176421Z" fill="#6052FF"/>
<path d="M14.0323 3.35205C14.0323 2.29351 14.3586 1.58781 14.8481 0.882117C15.5008 0.176423 16.1535 0 17.1325 0H18.9273C19.9063 0 20.5589 0.352847 21.2116 0.882117C21.8643 1.58781 22.0274 2.29351 22.0274 3.35205V16.4074C22.0274 17.4659 21.7011 18.1716 21.2116 18.8773C20.5589 19.583 19.9063 19.7594 18.9273 19.7594H17.1325C16.1535 19.7594 15.5008 19.4066 14.8481 18.8773C14.1955 18.1716 14.0323 17.4659 14.0323 16.4074V3.35205ZM17.2956 17.9952H19.2536C19.7431 17.9952 20.0694 17.8188 20.3958 17.6423C20.7221 17.2895 20.7221 16.9366 20.7221 16.4074V3.35205C20.7221 2.82278 20.5589 2.46993 20.3958 2.11708C20.0694 1.76424 19.7431 1.76423 19.2536 1.76423H17.2956C16.8061 1.76423 16.4798 1.94066 16.1535 2.11708C15.8271 2.46993 15.8271 2.82278 15.8271 3.35205V16.4074C15.8271 16.9366 15.9903 17.2895 16.1535 17.6423C16.4798 17.8188 16.8061 17.9952 17.2956 17.9952Z" fill="#6052FF"/>
<path d="M24.3118 0.176392H29.0436C30.0226 0.176392 30.6752 0.529238 31.3279 1.05851C31.9806 1.7642 32.1437 2.4699 32.1437 3.52844V7.40975C32.1437 8.29187 31.9806 9.17399 31.4911 9.70326C31.0016 10.2325 30.3489 10.5854 29.5331 10.7618L32.6332 19.7594H32.3069C31.8174 19.7594 31.4911 19.583 31.1647 19.4065C30.8384 19.0537 30.5121 18.7008 30.3489 18.348L27.9014 10.7618H25.9434V19.583H24.3118V0.176392ZM25.9434 8.99756H29.0436C29.5331 8.99756 29.8594 8.82114 30.1857 8.64472C30.5121 8.29187 30.5121 7.93902 30.5121 7.40975V3.52844C30.5121 2.99917 30.3489 2.64632 30.1857 2.29347C29.8594 1.94063 29.5331 1.94063 29.0436 1.94063H25.9434V8.99756Z" fill="#6052FF"/>
<path d="M36.2229 0.176392V17.9952H39.9757C40.302 17.9952 40.6284 18.1716 40.9547 18.348C41.1179 18.5244 41.281 18.8773 41.281 19.4065V19.7594H34.5912V0.176392H36.2229Z" fill="#6052FF"/>
<path d="M47.4813 0.176392C48.4603 0.176392 49.113 0.529238 49.7657 1.05851C50.4183 1.7642 50.5815 2.4699 50.5815 3.52844V16.2309C50.5815 17.2895 50.2552 17.9951 49.7657 18.7008C49.113 19.4065 48.4603 19.583 47.4813 19.583H42.7495V0.176392H47.4813ZM44.3812 1.94063V17.9952H47.4813C47.9708 17.9952 48.2972 17.8187 48.6235 17.6423C48.9498 17.2895 48.9498 16.9366 48.9498 16.4073V3.52844C48.9498 2.99917 48.7867 2.64632 48.6235 2.29347C48.2972 1.94063 47.9708 1.94063 47.4813 1.94063H44.3812V1.94063Z" fill="#6052FF"/>
<path d="M19.4168 23.9936C20.3958 23.9936 21.0484 24.3464 21.7011 24.8757C22.3538 25.5814 22.5169 26.2871 22.5169 27.3456V31.4034C22.5169 32.1091 22.3538 32.6383 22.0274 32.9912C21.7011 33.344 21.2116 33.5205 20.5589 33.5205C21.2116 33.5205 21.7011 33.6969 22.0274 34.0497C22.3538 34.4026 22.5169 34.9318 22.5169 35.6375V39.6953C22.5169 40.7538 22.1906 41.4595 21.7011 42.1652C21.0484 42.8709 20.3958 43.0473 19.4168 43.0473H14.685V23.9936H19.4168ZM16.3166 32.9912H19.4168C19.9063 32.9912 20.2326 32.8148 20.5589 32.6383C20.8853 32.2855 20.8853 31.9326 20.8853 31.4034V27.5221C20.8853 26.9928 20.7221 26.6399 20.5589 26.2871C20.2326 25.9343 19.9063 25.9343 19.4168 25.9343H16.3166V32.9912ZM16.3166 41.8124H19.4168C19.9063 41.8124 20.2326 41.6359 20.5589 41.4595C20.8853 41.1067 20.8853 40.7538 20.8853 40.2245V36.3432C20.8853 35.814 20.7221 35.4611 20.5589 35.1083C20.2326 34.7554 19.9063 34.7554 19.4168 34.7554H16.3166V41.8124Z" fill="#6052FF"/>
<path d="M24.3117 27.3456C24.3117 26.2871 24.6381 25.5814 25.1276 24.8757C25.7802 24.17 26.4329 23.9936 27.4119 23.9936H29.2067C30.1857 23.9936 30.8384 24.3464 31.4911 24.8757C32.1437 25.5814 32.3069 26.2871 32.3069 27.3456V40.4009C32.3069 41.4595 31.9806 42.1652 31.4911 42.8709C30.8384 43.5766 30.1857 43.753 29.2067 43.753H27.5751C26.5961 43.753 25.9434 43.4001 25.2907 42.8709C24.6381 42.1652 24.4749 41.4595 24.4749 40.4009V27.3456H24.3117ZM27.4119 41.9887H29.3699C29.8594 41.9887 30.1857 41.8123 30.5121 41.6359C30.8384 41.283 30.8384 40.9302 30.8384 40.4009V27.3456C30.8384 26.8163 30.6752 26.4635 30.5121 26.1106C30.1857 25.7578 29.8594 25.7578 29.3699 25.7578H27.4119C26.9224 25.7578 26.5961 25.9342 26.2697 26.1106C26.1066 26.4635 25.9434 26.8163 25.9434 27.3456V40.4009C25.9434 40.9302 26.1066 41.283 26.2697 41.6359C26.5961 41.8123 27.0856 41.9887 27.4119 41.9887Z" fill="#6052FF"/>
<path d="M36.7124 25.5813C36.8756 25.0521 37.0387 24.6992 37.3651 24.5228C37.6914 24.17 38.0177 24.17 38.5072 24.17H38.9967L42.5864 43.7529H40.7915L39.9757 39.1659H35.8966L35.0807 43.7529H33.2859L36.7124 25.5813ZM39.8125 37.2253L38.0177 27.1692L36.2229 37.2253H39.8125Z" fill="#6052FF"/>
<path d="M42.4232 25.7578V23.9936H50.7447V25.7578H47.4814V43.5765H45.8497V25.7578H42.4232Z" fill="#6052FF"/>
<path d="M12.7269 47.9872H17.4588C18.4378 47.9872 19.0904 48.34 19.7431 48.8693C20.3957 49.3986 20.5589 50.2807 20.5589 51.3392V55.2205C20.5589 56.1027 20.3957 56.9848 19.9062 57.514C19.4168 58.0433 18.7641 58.3962 17.9483 58.5726L21.0484 67.5702H20.7221C20.2326 67.5702 19.9063 67.3937 19.5799 67.2173C19.2536 66.8645 18.9273 66.5116 18.7641 66.1588L16.1534 58.5726H14.3586V67.3937H12.7269V47.9872ZM14.3586 56.8083H17.4588C17.9483 56.8083 18.2746 56.6319 18.6009 56.4555C18.9273 56.1027 18.9273 55.7498 18.9273 55.2205V51.3392C18.9273 50.81 18.7641 50.4571 18.6009 50.1043C18.2746 49.7514 17.9483 49.7514 17.4588 49.7514H14.3586V56.8083Z" fill="#6052FF"/>
<path d="M22.8433 47.9872H30.1857V49.7514H24.4749V56.8083H28.3909V56.9847C28.3909 57.514 28.2277 57.8669 28.0646 58.2197C27.7382 58.5726 27.4119 58.5725 26.9224 58.5725H24.4749V65.6295H30.1857V67.3937H22.8433V47.9872Z" fill="#6052FF"/>
<path d="M32.3069 67.5701V47.9872H32.9595C33.2859 47.9872 33.6122 48.1636 33.9385 48.34C34.2649 48.5164 34.428 48.8693 34.5912 49.2221L39.1599 63.1596V47.9872H40.7915V67.5701H40.1389C39.8125 67.5701 39.4862 67.3937 39.1599 67.2173C38.8335 67.0409 38.6704 66.688 38.5072 66.3352L34.1017 52.2213V67.3937H32.3069V67.5701Z" fill="#6052FF"/>
<path d="M42.4232 49.7514V47.9872H50.7447V49.7514H47.4813V67.5701H45.8497V49.7514H42.4232Z" fill="#6052FF"/>
<path d="M53.3553 66.3352C53.3553 67.2173 53.5185 67.3937 54.3343 67.3937C59.0661 67.3937 71.7931 67.3937 73.5879 67.2173C69.6719 61.3953 67.5508 54.6912 65.756 47.8107C65.756 47.6343 65.756 47.4579 65.9191 47.2815C65.9191 47.105 66.0823 46.9286 66.2455 46.5758C66.8981 47.2815 67.3876 47.9872 67.8771 48.5164C70.8141 51.6921 73.9143 54.162 77.5039 56.2791C82.3989 59.1018 87.457 61.3953 92.8415 62.8067C100.021 64.7474 107.2 65.4531 114.543 64.7474C115.358 64.7474 115.358 64.2181 115.358 63.5124C115.358 58.749 115.358 3.70489 115.358 1.23497C115.358 0.529272 115.032 0.352848 114.543 0.352848C108.179 0.176425 58.2503 0 53.6817 0C53.5185 0 53.5185 0.176421 53.5185 0.176421C53.3553 4.76343 53.3553 63.8653 53.3553 66.3352ZM93.0047 31.2269C93.0047 24.17 92.1889 17.2895 90.8835 10.5854C90.5572 8.99759 90.2309 7.40978 89.9045 5.64555C90.2309 5.64555 90.394 5.64555 90.394 5.64555C90.5572 5.82197 90.8835 5.99839 91.0467 6.35124C94.31 10.409 97.247 14.6431 99.8577 19.2302C102.958 24.8757 105.405 30.6977 107.526 36.8725C108.669 40.0481 109.484 43.4002 110.3 46.7522C111.279 51.3392 111.932 56.1026 112.585 60.6897C112.748 61.2189 112.421 61.9246 112.421 62.6303C111.279 61.9246 110.3 61.3953 109.321 60.8661C106.384 59.2783 103.284 57.8669 100.021 57.3376C97.247 56.9848 94.4732 56.8083 91.6994 56.6319C90.394 56.4555 90.2309 56.2791 90.394 54.8677C90.7204 53.4563 91.0467 51.8685 91.373 50.4571C92.5152 44.1058 93.0047 37.7546 93.0047 31.2269ZM72.7721 46.5758C74.2406 41.4595 76.3617 36.8725 78.9724 32.2855C81.4199 28.2277 84.1937 24.3464 87.6202 21.1708C87.9465 20.9944 88.1097 20.6415 88.7624 20.2887C88.7624 20.9944 88.7624 21.3472 88.5992 21.7001C87.2939 26.8164 86.6412 31.9326 86.478 37.2253C86.3149 43.5766 86.6412 49.9278 87.7834 56.2791C87.7834 56.6319 87.6202 57.1612 87.457 57.1612C87.1307 57.3376 86.6412 57.1612 86.478 56.9848C85.8254 56.4555 85.4991 55.7498 84.8464 55.2205C81.5831 52.0449 77.9934 49.2221 73.5879 48.5164C72.6089 48.1636 72.4458 47.8107 72.7721 46.5758Z" fill="#6052FF"/>
<path d="M65.1033 15.878C67.8067 15.878 69.9983 13.5084 69.9983 10.5853C69.9983 7.66226 67.8067 5.29263 65.1033 5.29263C62.3999 5.29263 60.2084 7.66226 60.2084 10.5853C60.2084 13.5084 62.3999 15.878 65.1033 15.878Z" fill="white"/>
</svg>
