<svg width="74" height="40" viewBox="0 0 74 40" fill="none" xmlns="http://www.w3.org/2000/svg">
<path d="M1.25326 0.104437L2.08877 10.1305L3.55091 0.104437H4.69974L6.16188 10.1305L6.99739 0.104437H8.14621L6.99739 11.8016H6.16188C5.953 11.8016 5.74412 11.6971 5.53525 11.5927C5.32637 11.4882 5.22193 11.2794 5.22193 10.9661L4.07311 2.61097L2.81984 11.6971H1.98433C1.77546 11.6971 1.56658 11.5927 1.3577 11.4882C1.14882 11.3838 1.14882 11.1749 1.04439 10.8616L0 0H1.25326V0.104437Z" fill="white"/>
<path d="M8.98174 1.98434C8.98174 1.3577 9.19061 0.939948 9.50393 0.522193C9.92168 0.104439 10.3394 0 10.9661 0H12.1149C12.7415 0 13.1593 0.208877 13.577 0.522193C13.9948 0.939948 14.0992 1.3577 14.0992 1.98434V9.71279C14.0992 10.3394 13.8904 10.7572 13.577 11.1749C13.1593 11.5927 12.7415 11.6971 12.1149 11.6971H10.9661C10.3394 11.6971 9.92168 11.4882 9.50393 11.1749C9.08617 10.7572 8.98174 10.3394 8.98174 9.71279V1.98434ZM11.0705 10.6527H12.3238C12.6371 10.6527 12.846 10.5483 13.0548 10.4439C13.2637 10.235 13.2637 10.0261 13.2637 9.71279V1.98434C13.2637 1.67102 13.1593 1.46214 13.0548 1.25326C12.846 1.04439 12.6371 1.04439 12.3238 1.04439H11.0705C10.7572 1.04439 10.5483 1.14883 10.3394 1.25326C10.1306 1.46214 10.1306 1.67102 10.1306 1.98434V9.71279C10.1306 10.0261 10.235 10.235 10.3394 10.4439C10.5483 10.5483 10.7572 10.6527 11.0705 10.6527Z" fill="white"/>
<path d="M15.5614 0.104431H18.5901C19.2167 0.104431 19.6345 0.313308 20.0522 0.626624C20.47 1.04438 20.5744 1.46213 20.5744 2.08877V4.38642C20.5744 4.90861 20.47 5.4308 20.1567 5.74412C19.8433 6.05743 19.4256 6.26631 18.9034 6.37075L20.8877 11.6971H20.6788C20.3655 11.6971 20.1567 11.5927 19.9478 11.4882C19.7389 11.2794 19.53 11.0705 19.4256 10.8616L17.859 6.37075H16.6057V11.5927H15.5614V0.104431ZM16.6057 5.32636H18.5901C18.9034 5.32636 19.1123 5.22193 19.3211 5.11749C19.53 4.90861 19.53 4.69973 19.53 4.38642V2.08877C19.53 1.77545 19.4256 1.56657 19.3211 1.3577C19.1123 1.14882 18.9034 1.14882 18.5901 1.14882H16.6057V5.32636Z" fill="white"/>
<path d="M23.1854 0.104431V10.6527H25.5875C25.7964 10.6527 26.0052 10.7572 26.2141 10.8616C26.3186 10.9661 26.423 11.1749 26.423 11.4882V11.6971H22.141V0.104431H23.1854Z" fill="white"/>
<path d="M30.3916 0.104431C31.0183 0.104431 31.436 0.313308 31.8538 0.626624C32.2715 1.04438 32.376 1.46213 32.376 2.08877V9.60835C32.376 10.235 32.1671 10.6527 31.8538 11.0705C31.436 11.4882 31.0183 11.5927 30.3916 11.5927H27.3629V0.104431H30.3916ZM28.4073 1.14882V10.6527H30.3916C30.705 10.6527 30.9138 10.5483 31.1227 10.4439C31.3316 10.235 31.3316 10.0261 31.3316 9.71279V2.08877C31.3316 1.77545 31.2271 1.56657 31.1227 1.3577C30.9138 1.14882 30.705 1.14882 30.3916 1.14882H28.4073V1.14882Z" fill="white"/>
<path d="M12.4282 14.2036C13.0548 14.2036 13.4726 14.4125 13.8904 14.7258C14.3081 15.1436 14.4125 15.5613 14.4125 16.188V18.5901C14.4125 19.0078 14.3081 19.3211 14.0992 19.53C13.8904 19.7389 13.577 19.8433 13.1593 19.8433C13.577 19.8433 13.8904 19.9478 14.0992 20.1566C14.3081 20.3655 14.4125 20.6788 14.4125 21.0966V23.4987C14.4125 24.1253 14.2037 24.5431 13.8904 24.9608C13.4726 25.3786 13.0548 25.483 12.4282 25.483H9.39949V14.2036H12.4282ZM10.4439 19.53H12.4282C12.7415 19.53 12.9504 19.4256 13.1593 19.3211C13.3682 19.1123 13.3682 18.9034 13.3682 18.5901V16.2924C13.3682 15.9791 13.2637 15.7702 13.1593 15.5613C12.9504 15.3525 12.7415 15.3525 12.4282 15.3525H10.4439V19.53ZM10.4439 24.7519H12.4282C12.7415 24.7519 12.9504 24.6475 13.1593 24.5431C13.3682 24.3342 13.3682 24.1253 13.3682 23.812V21.5143C13.3682 21.201 13.2637 20.9922 13.1593 20.7833C12.9504 20.5744 12.7415 20.5744 12.4282 20.5744H10.4439V24.7519Z" fill="white"/>
<path d="M15.5613 16.188C15.5613 15.5613 15.7702 15.1436 16.0835 14.7258C16.5013 14.3081 16.919 14.2036 17.5457 14.2036H18.6945C19.3211 14.2036 19.7389 14.4125 20.1566 14.7258C20.5744 15.1436 20.6788 15.5613 20.6788 16.188V23.9164C20.6788 24.5431 20.47 24.9608 20.1566 25.3786C19.7389 25.7963 19.3211 25.9008 18.6945 25.9008H17.6501C17.0235 25.9008 16.6057 25.6919 16.188 25.3786C15.7702 24.9608 15.6658 24.5431 15.6658 23.9164V16.188H15.5613ZM17.5457 24.8564H18.7989C19.1123 24.8564 19.3211 24.7519 19.53 24.6475C19.7389 24.4386 19.7389 24.2298 19.7389 23.9164V16.188C19.7389 15.8747 19.6344 15.6658 19.53 15.4569C19.3211 15.248 19.1123 15.248 18.7989 15.248H17.5457C17.2324 15.248 17.0235 15.3525 16.8146 15.4569C16.7102 15.6658 16.6057 15.8747 16.6057 16.188V23.9164C16.6057 24.2298 16.7102 24.4386 16.8146 24.6475C17.0235 24.7519 17.3368 24.8564 17.5457 24.8564Z" fill="white"/>
<path d="M23.4987 15.1436C23.6031 14.8303 23.7076 14.6214 23.9164 14.517C24.1253 14.3081 24.3342 14.3081 24.6475 14.3081H24.9608L27.2585 25.9008H26.1097L25.5875 23.1854H22.9765L22.4543 25.9008H21.3055L23.4987 15.1436ZM25.483 22.0365L24.3342 16.0835L23.1854 22.0365H25.483Z" fill="white"/>
<path d="M27.1541 15.248V14.2036H32.4804V15.248H30.3917V25.7963H29.3473V15.248H27.1541Z" fill="white"/>
<path d="M8.14621 28.4073H11.1749C11.8016 28.4073 12.2193 28.6162 12.6371 28.9295C13.0548 29.2428 13.1593 29.765 13.1593 30.3916V32.6893C13.1593 33.2115 13.0548 33.7337 12.7415 34.047C12.4282 34.3603 12.0104 34.5692 11.4882 34.6736L13.4726 40H13.2637C12.9504 40 12.7415 39.8956 12.5326 39.7911C12.3238 39.5822 12.1149 39.3734 12.0104 39.1645L10.3394 34.6736H9.1906V39.8956H8.14621V28.4073ZM9.1906 33.6292H11.1749C11.4882 33.6292 11.6971 33.5248 11.906 33.4204C12.1149 33.2115 12.1149 33.0026 12.1149 32.6893V30.3916C12.1149 30.0783 12.0104 29.8695 11.906 29.6606C11.6971 29.4517 11.4882 29.4517 11.1749 29.4517H9.1906V33.6292Z" fill="white"/>
<path d="M14.6214 28.4073H19.3212V29.4517H15.6658V33.6292H18.1723V33.7337C18.1723 34.047 18.0679 34.2559 17.9635 34.4648C17.7546 34.6736 17.5457 34.6736 17.2324 34.6736H15.6658V38.8512H19.3212V39.8956H14.6214V28.4073Z" fill="white"/>
<path d="M20.6788 40V28.4073H21.0966C21.3055 28.4073 21.5144 28.5118 21.7232 28.6162C21.9321 28.7206 22.0366 28.9295 22.141 29.1384L25.0653 37.389V28.4073H26.1097V40H25.6919C25.483 40 25.2741 39.8956 25.0653 39.7911C24.8564 39.6867 24.752 39.4778 24.6475 39.2689L21.8277 30.9138V39.8956H20.6788V40Z" fill="white"/>
<path d="M27.1541 29.4517V28.4073H32.4805V29.4517H30.3917V40H29.3473V29.4517H27.1541Z" fill="white"/>
<path d="M34.1514 39.2689C34.1514 39.7911 34.2559 39.8955 34.7781 39.8955C37.8068 39.8955 45.953 39.8955 47.1018 39.7911C44.5953 36.3446 43.2376 32.376 42.0888 28.3029C42.0888 28.1984 42.0888 28.094 42.1932 27.9895C42.1932 27.8851 42.2976 27.7807 42.4021 27.5718C42.8198 27.9896 43.1332 28.4073 43.4465 28.7206C45.3264 30.6005 47.3107 32.0627 49.6083 33.3159C52.7415 34.9869 55.9791 36.3446 59.4256 37.1801C64.0209 38.329 68.6162 38.7467 73.3159 38.329C73.8381 38.329 73.8381 38.0157 73.8381 37.5979C73.8381 34.7781 73.8381 2.19321 73.8381 0.731071C73.8381 0.313317 73.6292 0.208878 73.3159 0.208878C69.2428 0.104439 37.2846 0 34.3603 0C34.2559 0 34.2559 0.104437 34.2559 0.104437C34.1514 2.81984 34.1514 37.8068 34.1514 39.2689ZM59.53 18.4856C59.53 14.3081 59.0078 10.235 58.1723 6.26632C57.9634 5.32637 57.7546 4.38642 57.5457 3.34204C57.7546 3.34204 57.859 3.34204 57.859 3.34204C57.9634 3.44648 58.1723 3.55091 58.2768 3.75979C60.3655 6.16188 62.2454 8.66841 63.9164 11.3838C65.9008 14.7258 67.4673 18.1723 68.825 21.8277C69.5561 23.7076 70.0783 25.6919 70.6005 27.6762C71.2271 30.3916 71.6449 33.2115 72.0626 35.9269C72.1671 36.2402 71.9582 36.658 71.9582 37.0757C71.2271 36.658 70.6005 36.3446 69.9739 36.0313C68.094 35.0914 66.1096 34.2559 64.0209 33.9425C62.2454 33.7337 60.47 33.6292 58.6945 33.5248C57.859 33.4204 57.7546 33.3159 57.859 32.4804C58.0679 31.6449 58.2767 30.705 58.4856 29.8694C59.2167 26.1097 59.53 22.3499 59.53 18.4856ZM46.5796 27.5718C47.5196 24.5431 48.8773 21.8277 50.5483 19.1123C52.1149 16.7102 53.8903 14.4125 56.0835 12.5326C56.2924 12.4282 56.3969 12.2193 56.8146 12.0104C56.8146 12.4282 56.8146 12.6371 56.7102 12.8459C55.8747 15.8747 55.4569 18.9034 55.3525 22.0365C55.248 25.7963 55.4569 29.5561 56.188 33.3159C56.188 33.5248 56.0835 33.8381 55.9791 33.8381C55.7702 33.9426 55.4569 33.8381 55.3525 33.7337C54.9347 33.4204 54.7258 33.0026 54.3081 32.6893C52.2193 30.8094 49.9217 29.1384 47.1018 28.7206C46.4752 28.5117 46.3707 28.3029 46.5796 27.5718Z" fill="white"/>
<path d="M41.671 9.39947C43.4014 9.39947 44.8042 7.9967 44.8042 6.26631C44.8042 4.53591 43.4014 3.13315 41.671 3.13315C39.9406 3.13315 38.5379 4.53591 38.5379 6.26631C38.5379 7.9967 39.9406 9.39947 41.671 9.39947Z" fill="#1E2A35"/>
</svg>
