<svg width="35" height="35" viewBox="0 0 35 35" fill="none" xmlns="http://www.w3.org/2000/svg">
<path fill-rule="evenodd" clip-rule="evenodd" d="M10.2083 4.375C11.5017 4.37517 12.7583 4.80495 13.7809 5.59684C14.8035 6.38872 15.5341 7.49784 15.8579 8.75H27.7083V11.6667H15.8579C15.4996 13.0382 14.6543 14.2324 13.4799 15.0264C12.3054 15.8203 10.8822 16.1597 9.47593 15.9811C8.06963 15.8025 6.77642 15.1181 5.83775 14.0558C4.89908 12.9935 4.37914 11.6259 4.375 10.2083C4.375 8.66124 4.98958 7.17751 6.08354 6.08354C7.17751 4.98958 8.66124 4.375 10.2083 4.375V4.375ZM10.2083 13.125C10.9819 13.125 11.7237 12.8177 12.2707 12.2707C12.8177 11.7237 13.125 10.9819 13.125 10.2083C13.125 9.43478 12.8177 8.69292 12.2707 8.14594C11.7237 7.59896 10.9819 7.29167 10.2083 7.29167C9.43479 7.29167 8.69292 7.59896 8.14594 8.14594C7.59896 8.69292 7.29167 9.43478 7.29167 10.2083C7.29167 10.9819 7.59896 11.7237 8.14594 12.2707C8.69292 12.8177 9.43479 13.125 10.2083 13.125V13.125Z" fill="#6052FF"/>
<path fill-rule="evenodd" clip-rule="evenodd" d="M24.7917 29.1667C23.4983 29.1665 22.2417 28.7367 21.2191 27.9448C20.1965 27.153 19.4659 26.0438 19.1421 24.7917H7.29169V21.875H19.1421C19.5005 20.5035 20.3458 19.3092 21.5202 18.5153C22.6946 17.7214 24.1178 17.382 25.5241 17.5606C26.9304 17.7392 28.2236 18.4236 29.1623 19.4858C30.1009 20.5481 30.6209 21.9158 30.625 23.3333C30.625 24.8804 30.0104 26.3642 28.9165 27.4581C27.8225 28.5521 26.3388 29.1667 24.7917 29.1667ZM24.7917 26.25C25.5652 26.25 26.3071 25.9427 26.8541 25.3957C27.4011 24.8487 27.7084 24.1069 27.7084 23.3333C27.7084 22.5598 27.4011 21.8179 26.8541 21.2709C26.3071 20.724 25.5652 20.4167 24.7917 20.4167C24.0181 20.4167 23.2763 20.724 22.7293 21.2709C22.1823 21.8179 21.875 22.5598 21.875 23.3333C21.875 24.1069 22.1823 24.8487 22.7293 25.3957C23.2763 25.9427 24.0181 26.25 24.7917 26.25V26.25Z" fill="#E2E2E2"/>
</svg>
